<?xml version="1.0" standalone="no"?>
<!DOCTYPE svg PUBLIC "-//W3C//DTD SVG 20010904//EN"
 "http://www.w3.org/TR/2001/REC-SVG-20010904/DTD/svg10.dtd">
<svg version="1.0" xmlns="http://www.w3.org/2000/svg"
 width="512.000000pt" height="512.000000pt" viewBox="0 0 512.000000 512.000000"
 preserveAspectRatio="xMidYMid meet">

<g transform="translate(0.000000,512.000000) scale(0.100000,-0.100000)"
fill="#FFBA08" stroke="none">
<path d="M2000 4160 l0 -199 -77 -3 -78 -3 -3 -172 c-2 -151 -5 -173 -18 -173
-9 0 -64 -16 -121 -35 -58 -19 -107 -35 -109 -35 -2 0 -4 167 -4 370 l0 370
-715 0 -715 0 0 -560 0 -560 75 0 75 0 2 483 3 482 83 3 82 3 0 -571 0 -570
-240 0 -240 0 0 -1115 0 -1115 2560 0 2560 0 0 635 0 635 -120 0 -120 0 0 85
0 85 120 0 120 0 0 298 0 297 -400 319 -400 320 0 395 0 396 -395 -395 -395
-395 -2 -220 -3 -220 -197 -3 -198 -2 -2 -278 -3 -277 -197 -3 -198 -2 0 -355
0 -355 75 0 75 0 0 280 0 280 200 0 200 0 0 280 0 280 125 0 125 0 0 -965 0
-965 -49 0 -49 0 -7 47 c-4 26 -20 83 -35 126 -74 201 -244 364 -455 434 -71
24 -95 27 -215 27 -119 0 -144 -3 -215 -27 -43 -14 -80 -25 -81 -24 0 1 -22
286 -48 632 -26 347 -50 656 -53 688 -6 55 -5 57 18 57 45 0 218 67 284 110
116 75 167 155 167 261 0 153 -145 283 -392 353 l-85 24 -3 171 -2 171 -80 0
-80 0 0 200 0 200 -75 0 -75 0 0 -200z m-560 -379 l0 -349 -34 -56 c-91 -151
-31 -307 159 -416 56 -32 220 -90 255 -90 21 0 21 -3 15 -62 -6 -61 -145
-1872 -145 -1889 0 -5 -22 -9 -50 -9 l-50 0 0 965 0 965 -75 0 -75 0 0 -965 0
-965 -85 0 -85 0 0 1200 0 1200 -133 0 c-121 0 -136 -2 -152 -20 -10 -11 -22
-20 -27 -20 -4 0 -8 155 -8 345 l0 345 -75 0 -75 0 0 -428 0 -428 -58 -57
c-42 -41 -65 -57 -85 -57 l-27 0 0 563 c0 310 3 567 7 570 3 4 186 7 405 7
l398 0 0 -349z m2730 -1036 l0 -1105 75 0 75 0 2 799 3 799 322 -257 322 -256
0 -187 1 -188 -120 0 -120 0 0 -235 0 -235 120 0 120 0 0 -485 0 -485 -165 0
-165 0 0 965 0 965 -75 0 -75 0 0 -965 0 -965 -85 0 -85 0 -2 282 -3 283 -72
3 -73 3 0 -286 0 -285 -245 0 -245 0 0 245 0 245 160 0 160 0 0 875 0 875
-160 0 -160 0 0 112 0 113 237 237 c131 131 241 238 245 238 5 0 8 -497 8
-1105z m-2010 970 l0 -86 -82 3 -83 3 -3 83 -3 82 86 0 85 0 0 -85z m195 -264
c90 -25 201 -80 236 -117 l22 -24 -533 0 -533 0 19 21 c47 53 151 101 284 130
122 27 390 21 505 -10z m-1235 -536 l0 -245 -240 0 -240 0 0 -75 0 -75 240 0
240 0 0 -85 0 -85 -240 0 -240 0 0 -75 0 -75 240 0 240 0 0 -85 0 -85 -240 0
-240 0 0 -75 0 -75 240 0 240 0 0 -85 0 -85 -240 0 -240 0 0 -75 0 -75 240 0
240 0 0 -85 0 -85 -240 0 -240 0 0 -75 0 -75 240 0 240 0 0 -165 0 -165 -485
0 -485 0 0 965 0 965 298 0 297 0 160 160 c129 129 165 160 187 160 l28 0 0
-245z m1490 241 c0 -2 -27 -22 -60 -44 -210 -141 -622 -158 -875 -36 -38 18
-83 44 -100 58 l-30 25 533 1 c292 0 532 -2 532 -4z m1238 -238 l-3 -83 -82
-3 -83 -3 0 86 0 85 85 0 86 0 -3 -82z m-1674 -133 c3 -33 29 -357 56 -720
l51 -660 -69 -70 c-102 -105 -178 -250 -197 -378 l-7 -47 -85 0 -85 0 6 62 c3
35 35 448 71 918 35 470 67 878 70 905 l6 50 89 0 88 0 6 -60z m1676 -190 l0
-85 -85 0 -85 0 0 85 0 85 85 0 85 0 0 -85z m0 -320 l0 -85 -85 0 -85 0 0 85
0 85 85 0 85 0 0 -85z m0 -320 l0 -85 -85 0 -85 0 0 85 0 85 85 0 85 0 0 -85z
m0 -320 l0 -85 -85 0 -85 0 0 85 0 85 85 0 85 0 0 -85z m-1007 -250 c76 -16
183 -69 242 -120 l40 -34 -405 0 -405 0 40 35 c51 44 185 110 250 122 75 14
162 13 238 -3z m414 -375 c38 -112 102 -100 -537 -100 -308 0 -560 3 -560 8 1
19 21 91 35 125 l15 37 513 -2 512 -3 22 -65z"/>
<path d="M1120 3880 l0 -81 78 3 77 3 0 75 0 75 -77 3 -78 3 0 -81z"/>
<path d="M1120 3555 l0 -76 78 3 77 3 3 73 3 72 -81 0 -80 0 0 -75z"/>
<path d="M3040 1955 l0 -75 80 0 80 0 0 75 0 75 -80 0 -80 0 0 -75z"/>
<path d="M3040 1635 l0 -75 80 0 80 0 0 75 0 75 -80 0 -80 0 0 -75z"/>
</g>
</svg>
