<?xml version="1.0" standalone="no"?>
<!DOCTYPE svg PUBLIC "-//W3C//DTD SVG 20010904//EN"
 "http://www.w3.org/TR/2001/REC-SVG-20010904/DTD/svg10.dtd">
<svg version="1.0" xmlns="http://www.w3.org/2000/svg"
 width="512.000000pt" height="512.000000pt" viewBox="0 0 512.000000 512.000000"
 preserveAspectRatio="xMidYMid meet">

<g transform="translate(0.000000,512.000000) scale(0.100000,-0.100000)"
fill="#FFBA08" stroke="none">
<path d="M2665 5011 c-483 -178 -950 -481 -1400 -905 l-130 -123 -80 -5 c-98
-7 -176 -35 -253 -93 -140 -105 -214 -282 -191 -453 l9 -63 -74 -112 c-561
-852 -698 -1729 -370 -2374 l51 -101 -43 -7 c-53 -8 -89 -35 -104 -79 -16 -50
6 -94 69 -140 28 -21 51 -40 51 -42 0 -2 -13 -28 -30 -57 -40 -72 -39 -110 4
-153 39 -39 72 -43 152 -19 27 8 49 15 50 15 1 0 14 -29 29 -65 32 -77 65
-100 127 -92 52 7 74 28 99 98 23 63 25 64 97 38 38 -14 95 -10 118 9 53 42
57 99 14 176 l-31 54 43 30 c68 47 83 68 83 119 0 37 -5 49 -31 73 -20 17 -49
31 -75 35 -82 12 -79 9 -79 89 0 84 -18 117 -74 136 -43 14 -74 2 -133 -50
l-45 -39 -54 45 c-45 36 -62 44 -95 44 -22 0 -49 -4 -59 -10 -16 -8 -21 -1
-45 58 -201 493 -135 1105 187 1746 62 125 98 187 207 364 l33 52 64 -59 c152
-143 358 -177 540 -90 75 35 160 110 204 179 37 58 70 156 70 208 0 34 9 46
118 152 276 270 598 490 905 620 65 28 124 50 131 50 7 0 19 -12 27 -26 22
-43 106 -111 156 -128 103 -35 211 -13 293 61 55 49 84 97 95 156 l7 37 55 0
c75 0 241 -35 332 -70 135 -52 227 -114 336 -224 133 -134 209 -266 255 -445
125 -474 -68 -1080 -524 -1651 -124 -154 -404 -436 -551 -554 -352 -282 -702
-459 -1060 -538 -83 -18 -132 -22 -295 -23 -220 0 -297 14 -460 84 -122 52
-192 102 -300 210 -131 132 -212 278 -254 456 -24 101 -34 122 -66 135 -36 15
-87 -9 -96 -46 -8 -33 11 -127 49 -234 140 -403 470 -675 905 -746 142 -23
397 -14 556 20 359 77 759 280 1111 562 242 195 540 513 720 770 560 799 603
1633 108 2121 -197 195 -508 323 -783 323 -58 0 -59 1 -91 45 -35 49 -82 85
-144 111 -55 23 -174 15 -232 -14 -79 -41 -143 -122 -158 -202 -6 -34 -10 -36
-98 -68 -312 -114 -700 -366 -991 -642 -72 -69 -80 -73 -90 -56 -54 93 -99
147 -156 190 -36 27 -66 52 -68 55 -3 9 215 206 339 307 364 296 747 516 1119
644 52 18 104 40 114 50 24 23 24 75 0 101 -27 30 -76 23 -219 -30z m442 -514
c31 -30 37 -44 40 -89 3 -41 -1 -60 -16 -86 -44 -69 -133 -92 -199 -52 -86 53
-96 167 -20 236 33 30 46 34 106 30 46 -2 59 -8 89 -39z m-1910 -683 c141 -48
225 -168 225 -322 0 -62 -5 -83 -31 -136 -59 -121 -169 -190 -301 -191 -66 0
-85 5 -142 33 -81 40 -139 102 -169 181 -28 76 -24 195 9 263 39 79 125 152
212 179 44 13 148 9 197 -7z m-682 -3084 c13 0 40 14 58 30 19 17 36 30 38 30
2 0 3 -20 1 -44 -3 -38 0 -49 22 -70 14 -15 35 -26 48 -26 44 0 50 -15 18 -39
-46 -34 -55 -66 -31 -114 11 -23 19 -43 17 -45 -2 -2 -22 2 -45 9 -35 10 -44
10 -67 -6 -14 -9 -33 -35 -42 -56 l-15 -40 -20 45 c-23 55 -60 74 -108 57 -49
-17 -50 -14 -27 33 18 38 19 48 9 73 -6 16 -26 38 -44 48 l-32 19 45 13 c59
17 80 43 80 100 l0 45 35 -31 c20 -17 47 -31 60 -31z"/>
<path d="M4858 5016 c-28 -21 -38 -58 -23 -92 31 -74 135 -48 135 33 0 55 -70
92 -112 59z"/>
<path d="M549 4901 c-16 -13 -24 -33 -28 -67 l-6 -49 -45 -3 c-57 -4 -80 -25
-80 -72 0 -47 26 -71 85 -77 l45 -6 0 -43 c0 -34 5 -47 26 -63 56 -44 113 -15
121 62 5 40 9 47 28 47 36 0 85 21 95 40 31 58 -5 110 -75 110 -45 0 -45 0
-45 35 0 46 -17 80 -47 94 -33 15 -47 14 -74 -8z"/>
<path d="M4577 4738 c-24 -19 -36 -59 -26 -87 5 -13 34 -51 64 -83 110 -119
215 -301 273 -474 121 -361 106 -773 -44 -1236 -58 -177 -59 -204 -15 -227 76
-41 111 10 190 282 175 601 118 1160 -162 1585 -58 89 -157 209 -196 239 -21
16 -63 16 -84 1z"/>
<path d="M3689 3838 c-32 -11 -54 -49 -45 -81 3 -14 22 -44 42 -68 230 -276
99 -807 -334 -1349 -103 -129 -393 -419 -522 -520 -362 -287 -705 -439 -990
-440 -169 0 -270 34 -370 127 -92 85 -136 185 -147 334 -23 335 207 806 598
1224 218 234 450 426 682 564 90 54 107 72 107 114 0 30 -39 67 -71 67 -14 0
-68 -25 -119 -56 -449 -265 -921 -756 -1158 -1204 -219 -413 -251 -799 -87
-1047 120 -182 306 -273 556 -273 201 0 378 47 607 160 367 182 742 496 1041
870 464 581 596 1163 341 1502 -54 71 -88 91 -131 76z"/>
<path d="M2920 3476 c-410 -87 -894 -496 -1119 -944 -76 -151 -104 -251 -109
-387 -4 -112 -3 -122 18 -147 27 -35 80 -38 110 -8 17 17 20 33 20 118 0 125
23 212 95 357 78 157 170 280 325 436 188 189 330 291 522 373 250 107 439 80
488 -69 21 -64 8 -206 -28 -308 -70 -197 -190 -375 -387 -572 -270 -270 -538
-419 -778 -433 -89 -4 -100 -7 -117 -30 -28 -35 -25 -59 11 -94 l30 -31 92 6
c278 18 599 197 889 493 199 204 332 410 411 637 29 86 32 101 32 227 0 118
-3 141 -22 182 -33 71 -103 141 -175 173 -75 34 -205 42 -308 21z"/>
<path d="M2453 2894 c-60 -22 -127 -86 -160 -151 -55 -113 -27 -263 63 -342
68 -60 111 -76 204 -76 73 0 92 4 136 27 142 75 200 248 131 391 -34 67 -101
130 -164 151 -57 20 -154 19 -210 0z m188 -157 c21 -14 41 -41 53 -69 17 -42
18 -52 7 -90 -24 -77 -94 -119 -175 -104 -46 9 -91 53 -107 104 -11 38 -10 48
7 90 25 61 71 92 134 92 32 0 58 -7 81 -23z"/>
<path d="M4673 2423 c-14 -16 -57 -84 -95 -153 -278 -495 -743 -1015 -1243
-1390 -455 -341 -892 -546 -1370 -642 -96 -19 -144 -22 -377 -23 -245 -1 -269
-2 -287 -20 -28 -25 -27 -70 3 -99 31 -31 135 -40 380 -33 378 11 726 109
1146 323 731 372 1455 1068 1879 1807 85 148 95 173 81 207 -11 27 -46 50 -76
50 -8 0 -27 -12 -41 -27z"/>
<path d="M4712 1363 c-7 -3 -19 -18 -28 -35 -39 -75 57 -146 114 -85 56 60 -9
151 -86 120z"/>
<path d="M4294 1079 c-53 -15 -127 -71 -161 -122 -100 -150 -43 -351 122 -429
110 -52 233 -34 324 48 65 59 95 127 95 219 1 120 -60 215 -169 267 -64 30
-145 36 -211 17z m150 -153 c71 -30 105 -128 68 -196 -61 -111 -213 -107 -264
6 -55 125 68 244 196 190z"/>
<path d="M1576 499 c-52 -41 -23 -129 44 -129 67 0 96 88 44 129 -15 12 -34
21 -44 21 -10 0 -29 -9 -44 -21z"/>
</g>
</svg>
