<?xml version="1.0" standalone="no"?>
<!DOCTYPE svg PUBLIC "-//W3C//DTD SVG 20010904//EN"
 "http://www.w3.org/TR/2001/REC-SVG-20010904/DTD/svg10.dtd">
<svg version="1.0" xmlns="http://www.w3.org/2000/svg"
 width="512.000000pt" height="512.000000pt" viewBox="0 0 512.000000 512.000000"
 preserveAspectRatio="xMidYMid meet">

<g transform="translate(0.000000,512.000000) scale(0.100000,-0.100000)"
fill="#FFBA08" stroke="none">
<path d="M122 4997 l-122 -122 0 -85 0 -86 68 -67 68 -67 52 53 52 53 -45 44
c-65 63 -62 79 33 173 55 54 85 77 102 77 20 0 246 -221 1075 -1050 l1050
-1050 -103 -102 -102 -103 -953 953 -952 952 -48 -48 c-26 -26 -47 -52 -47
-57 0 -6 426 -436 947 -957 l948 -948 -252 -252 -252 -252 -36 34 -35 34 -155
-154 -155 -155 42 -42 42 -43 -39 -40 -39 -40 -43 42 -43 42 -123 -122 -122
-122 -68 67 -67 68 -192 -193 -193 -192 68 -67 67 -68 -227 -227 -227 -227 27
-29 27 -28 -75 -74 -75 -74 0 -66 0 -65 158 -158 157 -157 65 0 66 0 74 75 74
75 28 -27 29 -27 342 342 342 342 -53 52 -52 53 -290 -290 -290 -290 -172 173
-173 172 438 437 437 438 172 -172 173 -173 -95 -95 -95 -95 53 -52 52 -53
147 147 148 148 -43 43 -42 43 40 39 40 39 43 -42 42 -42 155 155 154 155 -34
35 -34 35 107 108 c59 59 107 112 107 117 0 5 -21 31 -47 57 l-47 48 -113
-112 -113 -113 -100 100 -100 100 252 252 253 253 100 -100 100 -100 -88 -88
-87 -87 52 -53 53 -52 87 87 88 88 252 -252 252 -252 -34 -36 -34 -35 154
-155 155 -155 42 42 43 42 40 -39 40 -39 -42 -43 -42 -43 122 -123 122 -122
-67 -68 -68 -67 193 -192 192 -193 67 68 68 67 227 -227 227 -227 29 27 28 27
74 -75 74 -75 66 0 65 0 158 158 157 157 0 65 0 66 -75 74 -75 74 27 28 27 29
-342 342 -342 342 -52 -53 -53 -52 290 -290 290 -290 -173 -172 -172 -173
-437 438 -438 437 172 172 173 173 95 -95 95 -95 52 53 53 52 -147 147 -148
148 -43 -43 -43 -42 -39 40 -39 40 42 43 42 42 -155 155 -155 154 -35 -34 -35
-34 -108 107 c-59 59 -112 107 -117 107 -5 0 -31 -21 -57 -47 l-48 -47 112
-113 113 -113 -100 -100 -100 -100 -253 253 -252 252 100 100 100 100 88 -88
87 -87 53 52 52 53 -87 87 -88 88 1073 1073 1072 1072 0 85 0 85 -123 123
-122 122 -85 0 -86 0 -67 -68 -67 -68 53 -52 53 -52 44 45 c63 65 79 62 173
-33 54 -55 77 -85 77 -102 0 -20 -221 -246 -1050 -1075 l-1050 -1050 -102 103
-103 102 953 953 952 952 -48 48 c-26 26 -52 47 -57 47 -6 0 -436 -426 -957
-947 l-948 -948 -1073 1073 -1072 1072 -85 0 -85 0 -123 -123z m2543 -2537
l-100 -100 -100 100 -100 100 100 100 100 100 100 -100 100 -100 -100 -100z
m-920 -720 l169 -170 -44 -45 c-24 -25 -49 -45 -55 -45 -13 0 -335 322 -335
335 0 10 80 95 90 95 3 0 82 -76 175 -170z m1853 127 c23 -23 42 -47 42 -52 0
-13 -322 -335 -335 -335 -6 0 -31 20 -55 45 l-44 45 169 170 c93 94 172 170
175 170 3 0 25 -19 48 -43z m-2018 -452 l-40 -40 -82 82 -82 83 39 40 39 40
83 -82 83 -83 -40 -40z m2083 43 l-83 -82 -40 39 -40 39 82 83 83 83 40 -40
40 -40 -82 -82z m-2845 -69 c1 -8 -33 -50 -77 -93 -70 -69 -82 -78 -96 -66
-14 12 -7 23 67 97 80 80 100 92 106 62z m3007 -649 c71 -71 78 -82 64 -95
-13 -13 -24 -6 -98 69 -76 77 -92 106 -58 106 7 0 48 -36 92 -80z m-3453 -367
c60 -59 108 -112 108 -118 0 -6 -23 -33 -50 -60 l-50 -50 -117 118 -118 117
50 50 c27 27 54 50 59 50 6 0 59 -48 118 -107z m4553 57 l50 -50 -118 -117
-117 -118 -50 50 c-27 27 -50 54 -50 59 0 14 212 226 225 226 6 0 33 -23 60
-50z"/>
<path d="M712 4407 l-52 -52 580 -580 580 -580 52 53 53 52 -580 580 -580 580
-53 -53z"/>
<path d="M4112 4217 l-52 -53 53 -52 53 -52 52 53 52 53 -53 52 -53 52 -52
-53z"/>
<path d="M3935 4040 l-50 -50 53 -53 52 -52 52 52 53 53 -50 50 c-27 27 -52
50 -55 50 -3 0 -28 -23 -55 -50z"/>
<path d="M3420 3525 l-395 -395 53 -52 52 -53 395 395 395 395 -53 53 -52 52
-395 -395z"/>
<path d="M1992 3837 l-52 -53 53 -52 53 -52 52 53 52 53 -53 52 -53 52 -52
-53z"/>
<path d="M2165 3660 l-49 -50 49 -50 c27 -27 54 -50 60 -50 6 0 32 22 58 48
l47 48 -53 52 c-29 29 -55 52 -58 52 -2 0 -27 -22 -54 -50z"/>
<path d="M2345 3480 l-50 -50 53 -53 52 -52 52 52 53 53 -50 50 c-27 27 -52
50 -55 50 -3 0 -28 -23 -55 -50z"/>
<path d="M1942 3177 l-52 -53 53 -52 53 -52 52 53 52 53 -53 52 -53 52 -52
-53z"/>
<path d="M3752 3157 c-23 -23 -42 -47 -42 -53 0 -5 23 -32 50 -59 l50 -50 52
53 53 52 -50 50 c-27 27 -54 50 -60 50 -6 0 -30 -19 -53 -43z"/>
<path d="M2115 3000 l-49 -50 49 -50 c27 -27 54 -50 59 -50 14 0 96 81 96 95
0 10 -91 105 -101 105 -2 0 -27 -22 -54 -50z"/>
<path d="M3577 2982 c-26 -26 -47 -52 -47 -58 0 -5 23 -32 50 -59 l50 -49 50
49 c28 27 50 54 50 60 0 10 -91 105 -101 105 -2 0 -26 -22 -52 -48z"/>
<path d="M3402 2797 l-52 -53 53 -52 53 -52 52 53 52 53 -53 52 -53 52 -52
-53z"/>
<path d="M3225 2620 l-50 -50 53 -53 52 -52 52 52 53 53 -50 50 c-27 27 -52
50 -55 50 -3 0 -28 -23 -55 -50z"/>
<path d="M1105 1300 l-50 -50 53 -53 52 -52 52 52 53 53 -50 50 c-27 27 -52
50 -55 50 -3 0 -28 -23 -55 -50z"/>
<path d="M932 1127 l-52 -53 53 -52 53 -52 52 53 52 53 -53 52 -53 52 -52 -53z"/>
<path d="M4032 997 l-52 -53 53 -52 53 -52 52 53 52 53 -53 52 -53 52 -52 -53z"/>
<path d="M637 832 l-167 -167 53 -53 52 -52 168 168 167 167 -53 53 -52 52
-168 -168z"/>
<path d="M4205 820 l-49 -50 54 -55 54 -55 48 47 c26 26 48 52 48 58 0 10 -91
105 -101 105 -2 0 -27 -23 -54 -50z"/>
<path d="M4385 640 l-50 -50 53 -53 52 -52 52 52 53 53 -50 50 c-27 27 -52 50
-55 50 -3 0 -28 -23 -55 -50z"/>
</g>
</svg>
