<?xml version="1.0" standalone="no"?>
<!DOCTYPE svg PUBLIC "-//W3C//DTD SVG 20010904//EN"
 "http://www.w3.org/TR/2001/REC-SVG-20010904/DTD/svg10.dtd">
<svg version="1.0" xmlns="http://www.w3.org/2000/svg"
 width="512.000000pt" height="512.000000pt" viewBox="0 0 512.000000 512.000000"
 preserveAspectRatio="xMidYMid meet">

<g transform="translate(0.000000,512.000000) scale(0.100000,-0.100000)"
fill="#FFBA08" stroke="none">
<path d="M4841 5104 c-65 -17 -192 -79 -272 -133 l-58 -39 -119 5 c-78 4 -137
2 -173 -7 -80 -18 -207 -82 -266 -135 -143 -126 -223 -345 -193 -528 l11 -68
-62 -99 c-98 -160 -123 -228 -124 -332 0 -72 3 -91 21 -114 38 -52 70 -68 142
-72 56 -3 81 1 151 27 83 30 193 89 259 138 31 24 35 24 109 13 274 -42 543
123 646 396 19 51 22 78 22 209 l0 150 41 65 c133 210 171 355 121 450 -43 82
-132 107 -256 74z m104 -191 c-6 -34 -70 -179 -92 -211 -7 -9 -30 9 -86 65
-56 55 -74 79 -65 85 59 40 190 96 227 97 22 1 23 -2 16 -36z m-507 -148 c34
-8 81 -24 104 -36 54 -28 134 -103 165 -156 l25 -43 -43 -56 c-98 -127 -336
-366 -464 -464 l-57 -44 -45 24 c-50 27 -125 105 -154 162 -84 165 -57 357 72
493 59 63 128 102 212 120 81 18 110 18 185 0z m313 -543 c-27 -89 -88 -172
-164 -223 -55 -36 -156 -75 -176 -67 -5 2 33 41 84 88 52 47 133 128 182 182
48 53 90 95 92 93 2 -2 -6 -35 -18 -73z m-785 -330 l45 -38 -53 -30 c-63 -35
-142 -69 -182 -78 l-29 -7 6 43 c6 46 30 105 73 182 l27 49 34 -42 c19 -22 54
-58 79 -79z"/>
<path d="M270 5025 l0 -85 85 0 85 0 0 85 0 85 -85 0 -85 0 0 -85z"/>
<path d="M2438 5100 c-216 -37 -430 -170 -538 -334 -53 -83 -90 -189 -97 -282
-6 -82 8 -117 53 -134 24 -9 24 -11 24 -133 0 -68 5 -138 11 -156 14 -39 54
-61 114 -61 l45 0 0 -85 0 -85 -99 0 c-80 0 -103 -3 -119 -17 -12 -10 -100
-196 -196 -414 l-176 -397 0 -195 c0 -193 0 -196 24 -224 24 -28 24 -28 171
-31 l146 -4 -3 -81 -3 -82 -90 -2 c-49 -2 -100 -5 -112 -8 -43 -10 -53 -51
-53 -223 l0 -159 -459 -417 c-253 -229 -462 -424 -465 -432 -3 -9 -6 -156 -6
-328 l0 -313 -50 -21 c-67 -28 -144 -102 -176 -171 -22 -45 -28 -75 -32 -153
l-5 -97 31 -30 30 -31 277 0 c362 0 351 -5 343 173 -4 75 -9 102 -32 145 -35
69 -95 128 -162 159 l-54 24 0 64 0 63 433 196 432 196 118 0 117 0 0 -259 0
-260 -54 -24 c-69 -32 -131 -94 -164 -166 -22 -45 -27 -74 -30 -150 -4 -102 4
-132 45 -150 16 -7 119 -11 299 -11 l276 0 30 31 31 30 -5 99 c-4 80 -10 108
-32 154 -33 66 -118 147 -181 171 l-45 18 0 72 0 72 148 186 147 186 220 0
220 0 148 -186 147 -186 0 -72 0 -72 -50 -21 c-66 -27 -144 -102 -176 -169
-22 -44 -28 -73 -32 -153 l-5 -99 31 -30 30 -31 277 0 c361 0 351 -5 343 167
-3 69 -9 100 -30 144 -33 72 -95 134 -164 166 l-54 24 0 260 0 259 118 0 117
0 433 -196 432 -196 0 -63 0 -64 -54 -24 c-69 -32 -131 -94 -164 -166 -21 -44
-27 -75 -30 -144 -8 -172 -18 -167 343 -167 l277 0 30 31 31 30 -5 97 c-4 78
-10 108 -32 154 -32 68 -116 149 -181 173 l-45 18 0 314 c0 177 -4 322 -9 332
-6 10 -215 204 -465 431 l-456 414 0 158 c0 172 -10 213 -53 223 -12 3 -62 6
-112 8 l-90 2 -3 82 -3 81 146 4 c147 3 147 3 171 31 24 28 24 31 24 225 l0
197 -175 395 c-97 219 -185 403 -196 413 -17 14 -41 17 -120 17 l-99 0 0 85 0
85 45 0 c56 0 97 20 113 55 7 16 12 76 12 156 0 127 0 130 24 139 57 21 70 94
40 220 -26 111 -79 206 -164 290 -190 191 -461 282 -712 240z m295 -186 c112
-29 255 -117 321 -197 40 -49 83 -132 92 -176 l7 -31 -376 0 -376 0 5 33 c20
113 80 241 166 350 35 43 62 47 161 21z m-402 -76 c-42 -77 -84 -202 -96 -280
l-7 -48 -125 0 -125 0 6 31 c17 88 95 196 191 264 48 35 170 101 193 105 1 0
-15 -33 -37 -72z m747 -580 l-3 -83 -510 0 -510 0 -3 83 -3 82 516 0 516 0 -3
-82z m-598 -343 l0 -86 -127 3 -128 3 -3 83 -3 82 131 0 130 0 0 -85z m428 3
l-3 -83 -127 -3 -128 -3 0 86 0 85 130 0 131 0 -3 -82z m-890 -270 c-3 -7 -47
-140 -99 -295 l-94 -283 -73 0 c-55 0 -73 3 -69 13 11 28 240 544 248 560 12
21 94 26 87 5z m268 -5 c-6 -21 -126 -560 -126 -568 0 -3 -34 -5 -75 -5 -41 0
-75 3 -75 7 0 5 43 137 96 295 l96 288 45 0 c38 0 44 -3 39 -17z m384 12 c0
-8 120 -547 126 -567 5 -17 -11 -18 -231 -18 -220 0 -236 1 -231 18 6 20 126
559 126 567 0 3 47 5 105 5 58 0 105 -2 105 -5z m361 -292 l97 -293 -77 0 -78
0 -52 238 c-29 130 -59 263 -66 295 l-13 58 45 -3 46 -3 98 -292z m291 7 c70
-157 127 -288 127 -292 1 -5 -32 -8 -72 -8 l-72 0 -94 283 c-52 155 -96 288
-99 295 -3 10 6 12 39 10 l43 -3 128 -285z m-1524 -557 l3 -83 -86 0 -85 0 0
85 0 86 83 -3 82 -3 3 -82z m340 0 l3 -83 -86 0 -85 0 0 85 0 86 83 -3 82 -3
3 -82z m342 2 l0 -85 -85 0 -85 0 0 85 0 85 85 0 85 0 0 -85z m340 0 l0 -85
-85 0 -85 0 0 85 0 85 85 0 85 0 0 -85z m340 0 l0 -85 -85 0 -85 0 0 78 c0 43
3 82 7 85 3 4 42 7 85 7 l78 0 0 -85z m340 0 l0 -85 -85 0 -85 0 0 78 c0 43 3
82 7 85 3 4 42 7 85 7 l78 0 0 -85z m-340 -350 l0 -85 -595 0 -595 0 0 85 0
85 595 0 595 0 0 -85z m260 -765 l0 -511 -102 3 -102 3 -162 364 c-90 200
-170 371 -178 380 -22 21 -91 20 -113 -2 -16 -16 -18 -51 -23 -380 l-5 -362
-170 0 -170 0 -5 362 c-5 329 -7 364 -23 380 -22 22 -91 23 -113 2 -8 -9 -88
-180 -178 -380 l-162 -364 -102 -3 -102 -3 0 511 0 510 855 0 855 0 0 -510z
m-1884 -397 c-5 -6 -256 202 -258 213 -1 4 57 60 128 125 l129 117 3 -225 c1
-124 0 -228 -2 -230z m2257 275 l68 -63 -127 -105 c-70 -58 -131 -106 -136
-108 -4 -2 -8 101 -8 228 l0 232 68 -60 c37 -33 98 -89 135 -124z m-1573 -287
l0 -158 -82 -104 -83 -103 -3 76 c-3 75 -3 76 80 262 45 102 83 186 85 186 2
0 3 -71 3 -159z m779 -30 c82 -183 82 -183 79 -259 l-3 -76 -82 103 -83 104 0
160 c0 88 2 158 4 156 2 -2 41 -87 85 -188z m-1646 -35 c59 -49 107 -92 107
-96 0 -5 -182 -91 -247 -117 -10 -4 -13 33 -13 167 l0 171 23 -18 c13 -10 71
-58 130 -107z m2574 -212 c-6 -7 -257 110 -255 118 2 4 59 54 128 111 l125
105 3 -166 c1 -90 1 -166 -1 -168z m423 -66 c0 -71 -2 -128 -4 -128 -2 0 -58
24 -123 53 l-118 54 -3 187 -2 187 124 -113 125 -113 1 -127z m-3322 160 l-3
-182 -115 -52 c-63 -29 -118 -53 -122 -54 -5 0 -8 57 -7 128 l0 127 117 107
c64 59 120 107 125 108 4 0 6 -82 5 -182z m-258 -790 c47 -24 90 -83 90 -125
0 -23 0 -23 -170 -23 -141 0 -170 2 -170 14 0 27 21 71 48 100 55 59 128 71
202 34z m1257 11 c38 -14 83 -57 99 -96 28 -64 31 -63 -156 -63 -170 0 -170 0
-170 23 0 12 10 40 23 62 38 68 131 102 204 74z m1213 -11 c47 -24 90 -83 90
-125 0 -23 0 -23 -170 -23 -141 0 -170 2 -170 14 0 27 21 71 48 100 55 59 128
71 202 34z m1257 11 c38 -14 83 -57 99 -96 28 -64 31 -63 -156 -63 -170 0
-170 0 -170 23 0 12 10 40 23 62 38 68 131 102 204 74z"/>
<path d="M10 4765 l0 -85 85 0 85 0 0 85 0 85 -85 0 -85 0 0 -85z"/>
<path d="M520 4765 l0 -85 85 0 85 0 0 85 0 85 -85 0 -85 0 0 -85z"/>
<path d="M270 4515 l0 -85 85 0 85 0 0 85 0 85 -85 0 -85 0 0 -85z"/>
<path d="M1200 4175 l0 -85 -85 0 -85 0 0 -85 0 -85 85 0 85 0 0 -85 0 -85 85
0 85 0 0 85 0 85 85 0 85 0 0 85 0 85 -85 0 -85 0 0 85 0 85 -85 0 -85 0 0
-85z m170 -170 l0 -85 -85 0 -85 0 0 85 0 85 85 0 85 0 0 -85z"/>
<path d="M463 3888 c-11 -13 -29 -39 -41 -59 -28 -47 -126 -139 -179 -169 -49
-27 -71 -69 -57 -108 5 -15 39 -46 84 -77 50 -34 91 -72 122 -116 91 -123 86
-119 127 -119 41 0 60 16 104 85 34 55 92 111 157 153 66 43 79 58 80 95 0 42
-14 62 -67 93 -68 40 -138 108 -178 175 -20 31 -42 60 -51 63 -35 13 -81 6
-101 -16z m108 -265 l46 -48 -48 -46 -47 -46 -48 48 -47 48 44 45 c24 25 46
46 49 46 3 0 26 -21 51 -47z"/>
<path d="M4679 3405 c-294 -94 -320 -502 -40 -634 47 -22 70 -26 141 -26 73 0
93 4 142 28 72 35 130 93 165 165 24 49 28 69 28 142 0 102 -27 169 -94 238
-84 86 -230 123 -342 87z m181 -178 c75 -40 109 -133 76 -210 -16 -39 -61 -82
-99 -96 -104 -40 -227 46 -227 159 0 57 39 120 90 147 55 29 105 29 160 0z"/>
<path d="M4100 2895 l0 -85 85 0 85 0 0 85 0 85 -85 0 -85 0 0 -85z"/>
<path d="M3842 2468 l3 -83 83 -3 82 -3 0 86 0 85 -85 0 -86 0 3 -82z"/>
<path d="M4352 2298 l3 -83 82 -3 82 -3 3 -82 3 -82 83 -3 82 -3 0 86 0 85
-85 0 -85 0 0 85 0 85 -85 0 -86 0 3 -82z"/>
<path d="M4182 2128 l3 -83 82 -3 82 -3 3 -82 3 -82 83 -3 82 -3 0 86 0 85
-85 0 -85 0 0 85 0 85 -85 0 -86 0 3 -82z"/>
<path d="M270 1195 l0 -85 85 0 86 0 -3 83 -3 82 -82 3 -83 3 0 -86z"/>
<path d="M270 770 l0 -170 85 0 85 0 -2 168 -3 167 -82 3 -83 3 0 -171z"/>
</g>
</svg>
