<?xml version="1.0" standalone="no"?>
<!DOCTYPE svg PUBLIC "-//W3C//DTD SVG 20010904//EN"
 "http://www.w3.org/TR/2001/REC-SVG-20010904/DTD/svg10.dtd">
<svg version="1.0" xmlns="http://www.w3.org/2000/svg"
 width="512.000000pt" height="512.000000pt" viewBox="0 0 512.000000 512.000000"
 preserveAspectRatio="xMidYMid meet">

<g transform="translate(0.000000,512.000000) scale(0.100000,-0.100000)"
fill="#FFBA08" stroke="none">
<path d="M2335 4950 c-480 -54 -901 -224 -1263 -509 -412 -324 -718 -797 -841
-1301 -53 -218 -66 -331 -66 -580 0 -313 40 -550 137 -815 307 -839 1036
-1430 1927 -1562 142 -21 493 -24 626 -5 283 40 516 110 763 228 140 68 142
70 142 204 l0 110 120 0 120 0 0 80 0 80 -120 0 -120 0 0 80 0 80 360 0 360 0
0 80 0 80 -302 0 -303 0 80 80 80 80 198 0 c197 0 198 0 222 25 23 22 25 32
25 120 l0 95 160 0 160 0 0 80 0 80 -160 0 -161 0 3 87 3 87 193 36 c120 23
198 42 208 52 49 49 88 487 65 734 -10 116 -28 234 -52 344 -6 31 -21 63 -35
77 -23 23 -26 23 -247 23 l-225 0 -5 23 c-3 12 -9 48 -12 80 l-7 57 136 0 136
0 0 80 0 80 -149 0 -148 0 -13 92 c-7 51 -15 99 -18 106 -2 7 -41 38 -86 68
l-81 54 128 0 127 0 0 80 0 80 -247 0 -248 0 -60 40 -60 40 -172 0 -173 0 0
80 0 80 200 0 200 0 0 80 0 80 -200 0 -200 0 0 183 c-1 196 -2 202 -55 229
-71 36 -300 95 -485 124 -115 18 -454 26 -565 14z m560 -175 c100 -15 305 -64
358 -84 l27 -11 0 -355 0 -356 25 -24 c24 -25 25 -25 227 -25 l203 0 216 -144
215 -144 39 -273 c34 -242 42 -276 62 -296 22 -23 27 -23 252 -23 l229 0 16
-87 c29 -159 39 -302 32 -468 -7 -158 -25 -318 -39 -331 -3 -4 -95 -24 -204
-44 -166 -31 -199 -41 -215 -60 -16 -20 -18 -45 -18 -276 l0 -254 -177 0 -177
0 -183 -183 -183 -183 0 -290 0 -291 -82 -38 c-201 -92 -414 -156 -633 -192
-165 -26 -507 -24 -675 5 -261 45 -523 135 -726 249 -95 53 -231 141 -284 183
l-25 20 213 0 212 0 0 80 0 80 -304 0 -304 0 -76 81 c-71 75 -212 254 -236
299 -11 20 -10 20 895 20 l905 0 0 -200 0 -200 -200 0 -200 0 0 -80 0 -80 680
0 680 0 0 80 0 80 -400 0 -400 0 0 200 0 200 480 0 480 0 0 80 0 80 -160 0
-160 0 0 200 0 200 440 0 440 0 0 80 0 80 -1040 0 -1040 0 0 200 0 200 1120 0
1120 0 0 80 0 80 -360 0 -360 0 0 200 0 200 240 0 240 0 0 80 0 80 -720 0
-720 0 0 -80 0 -80 400 0 400 0 0 -200 0 -200 -1561 0 -1560 0 6 73 c8 93 23
208 36 275 l10 52 415 0 414 0 0 80 0 80 -395 0 -395 0 39 108 c21 59 58 149
81 200 l43 92 313 0 314 0 0 80 0 80 -265 0 c-263 0 -266 0 -255 20 24 45 165
224 236 299 l76 81 264 0 264 0 0 80 0 80 -171 2 -171 3 78 56 c326 232 698
369 1119 413 83 9 424 -4 520 -19z m-975 -2495 l0 -200 -280 0 -280 0 0 -80 0
-80 880 0 880 0 0 -200 0 -200 -1274 0 -1273 0 -43 92 c-23 51 -60 141 -81
200 l-39 108 235 0 235 0 0 80 0 80 -254 0 -255 0 -10 53 c-13 66 -28 181 -36
275 l-6 72 800 0 801 0 0 -200z"/>
<path d="M1680 4240 l0 -80 80 0 80 0 0 80 0 80 -80 0 -80 0 0 -80z"/>
<path d="M2000 4240 l0 -80 560 0 560 0 0 80 0 80 -560 0 -560 0 0 -80z"/>
<path d="M1830 3977 c-140 -42 -272 -129 -355 -235 -205 -261 -207 -592 -4
-793 284 -281 802 -140 991 270 76 166 77 353 1 511 -34 71 -142 179 -213 213
-128 62 -284 74 -420 34z m322 -164 c26 -12 70 -43 98 -69 164 -153 142 -434
-49 -624 -288 -286 -722 -163 -721 204 0 133 52 248 160 356 76 77 162 128
246 149 66 17 212 8 266 -16z"/>
<path d="M1840 3400 l0 -80 80 0 80 0 0 80 0 80 -80 0 -80 0 0 -80z"/>
<path d="M2720 3680 l0 -80 520 0 520 0 0 80 0 80 -520 0 -520 0 0 -80z"/>
<path d="M4480 2560 l0 -80 80 0 80 0 0 80 0 80 -80 0 -80 0 0 -80z"/>
<path d="M1760 880 l0 -80 80 0 80 0 0 80 0 80 -80 0 -80 0 0 -80z"/>
<path d="M1040 2000 l0 -80 80 0 80 0 0 80 0 80 -80 0 -80 0 0 -80z"/>
<path d="M3600 4640 l0 -80 80 0 80 0 0 80 0 80 -80 0 -80 0 0 -80z"/>
<path d="M4560 3760 l0 -80 80 0 80 0 0 80 0 80 -80 0 -80 0 0 -80z"/>
<path d="M4160 800 l0 -80 80 0 80 0 0 80 0 80 -80 0 -80 0 0 -80z"/>
</g>
</svg>
