<svg xmlns="http://www.w3.org/2000/svg" version="1.0" preserveAspectRatio="xMidYMid meet" viewBox="14.5 191.5 466.57 115.98"><rect id="backgroundrect" width="100%" height="100%" x="0" y="0" fill="none" stroke="none"/>


<g class="currentLayer" style=""><title>Layer 1</title><g transform="translate(0,500) scale(0.10000000149011612,-0.10000000149011612) " fill="#08080a" stroke="#ececab" id="svg_1" class="selected" stroke-opacity="1" fill-opacity="1">
<path d="M4739 3047 c-91 -52 -95 -55 -84 -65 6 -5 40 -25 77 -45 l66 -37 6 38 c3 20 2 61 -2 89 l-7 53 -56 -33z" id="svg_2" stroke="#ececab" fill="#08080a" fill-opacity="1" stroke-opacity="1"/>
<path d="M4528 2881 c-93 -99 -164 -210 -214 -333 -38 -95 -70 -219 -61 -241 3 -8 45 -36 93 -62 l88 -48 75 79 c85 89 134 158 191 272 41 81 87 225 92 287 3 36 3 37 -86 86 -49 27 -90 49 -91 49 -2 0 -41 -40 -87 -89z m155 -63 c26 -30 22 -73 -9 -97 -15 -12 -34 -21 -44 -21 -34 0 -70 39 -70 75 0 67 79 95 123 43z" id="svg_3" stroke="#ececab" fill="#08080a" fill-opacity="1" stroke-opacity="1"/>
<path d="M1006 2764 c-9 -8 -16 -22 -16 -29 0 -7 7 -21 16 -29 30 -30 74 -13 74 29 0 42 -44 59 -74 29z" id="svg_4" stroke="#ececab" fill="#08080a" fill-opacity="1" stroke-opacity="1"/>
<path d="M3520 2766 c-28 -35 11 -93 48 -70 35 22 22 84 -18 84 -10 0 -23 -7 -30 -14z" id="svg_5" stroke="#ececab" fill="#FFBA08" fill-opacity="1" stroke-opacity="1"/>
<path d="M150 2569 c0 -180 8 -212 64 -251 46 -34 148 -37 200 -6 67 40 76 69 76 255 l0 163 -35 0 -35 0 0 -164 c0 -163 0 -163 -26 -190 -44 -44 -139 -32 -163 21 -7 14 -11 87 -11 178 l0 155 -35 0 -35 0 0 -161z" id="svg_6" stroke="#ececab" fill="#08080a" fill-opacity="1" stroke-opacity="1"/>
<path d="M2890 2705 c0 -22 4 -24 58 -27 l57 -3 3 -192 2 -193 30 0 30 0 2 193 3 192 58 3 c53 3 57 5 57 27 l0 25 -150 0 -150 0 0 -25z" id="svg_7" stroke="#ececab" fill="#FFBA08" fill-opacity="1" stroke-opacity="1"/>
<path d="M590 2465 l0 -175 35 0 35 0 0 119 c0 103 3 122 20 143 25 32 65 40 108 23 44 -19 52 -47 52 -176 l0 -109 35 0 35 0 0 118 c-1 179 -34 232 -148 232 -35 0 -57 -6 -76 -21 l-26 -20 0 20 c0 17 -6 21 -35 21 l-35 0 0 -175z" id="svg_8" stroke="#ececab" fill="#08080a" fill-opacity="1" stroke-opacity="1"/>
<path d="M1000 2465 l0 -175 35 0 35 0 0 175 0 175 -35 0 -35 0 0 -175z" id="svg_9" stroke="#ececab" fill="#08080a" fill-opacity="1" stroke-opacity="1"/>
<path d="M1144 2606 c8 -18 38 -97 67 -175 l52 -141 42 0 42 0 66 173 65 172 -25 3 c-14 2 -31 1 -38 -2 -7 -2 -32 -62 -55 -133 -23 -70 -46 -132 -50 -136 -4 -4 -29 55 -56 132 l-49 141 -37 0 -38 0 14 -34z" id="svg_10" stroke="#ececab" fill="#08080a" fill-opacity="1" stroke-opacity="1"/>
<path d="M1602 2623 c-53 -26 -76 -68 -80 -144 -5 -82 20 -135 78 -168 45 -25 127 -28 170 -6 28 15 70 60 70 76 0 18 -67 9 -84 -10 -23 -25 -65 -35 -98 -22 -34 13 -68 50 -68 73 0 16 11 18 136 18 l137 0 -6 52 c-7 59 -28 92 -77 126 -40 27 -128 30 -178 5z m153 -63 c13 -12 25 -30 28 -41 5 -18 -1 -19 -94 -19 -102 0 -109 3 -89 40 27 51 111 61 155 20z" id="svg_11" stroke="#ececab" fill="#08080a" fill-opacity="1" stroke-opacity="1"/>
<path d="M1930 2465 l0 -175 34 0 34 0 4 119 c3 133 14 157 72 163 27 3 31 7 34 36 3 28 0 32 -22 32 -13 0 -38 -12 -55 -26 l-31 -26 0 26 c0 23 -4 26 -35 26 l-35 0 0 -175z" id="svg_12" stroke="#ececab" fill="#08080a" fill-opacity="1" stroke-opacity="1"/>
<path d="M2225 2631 c-58 -24 -79 -102 -37 -143 12 -12 54 -34 94 -48 79 -28 102 -50 78 -75 -9 -8 -30 -17 -47 -21 -27 -5 -37 -1 -63 25 -21 21 -41 31 -61 31 -33 0 -35 -9 -13 -51 38 -75 206 -80 245 -7 18 34 13 78 -12 104 -13 14 -52 33 -91 45 -81 24 -105 51 -68 81 31 25 66 23 96 -7 29 -29 84 -35 84 -9 0 9 -15 31 -34 50 -31 31 -39 34 -92 33 -33 0 -68 -4 -79 -8z" id="svg_13" stroke="#ececab" fill="#08080a" fill-opacity="1" stroke-opacity="1"/>
<path d="M2570 2617 c-53 -35 -75 -81 -74 -154 1 -109 65 -173 174 -173 28 0 64 7 80 15 28 15 70 60 70 76 0 18 -61 8 -96 -16 -43 -29 -53 -30 -99 -11 -34 14 -55 41 -55 70 0 14 19 16 129 16 145 0 143 -1 130 72 -14 84 -71 128 -165 128 -47 0 -69 -5 -94 -23z m168 -62 c41 -48 32 -55 -73 -55 -102 0 -110 5 -79 48 34 49 112 52 152 7z" id="svg_14" stroke="#ececab" fill="#08080a" fill-opacity="1" stroke-opacity="1"/>
<path d="M3270 2465 l0 -175 35 0 35 0 0 114 c0 99 3 117 21 140 14 17 30 26 50 26 27 0 29 3 29 35 0 30 -3 35 -24 35 -12 0 -35 -11 -50 -25 l-26 -24 0 24 c0 22 -5 25 -35 25 l-35 0 0 -175z" id="svg_15" stroke="#ececab" fill="#FFBA08" fill-opacity="1" stroke-opacity="1"/>
<path d="M3510 2465 l0 -175 35 0 35 0 0 175 0 175 -35 0 -35 0 0 -175z" id="svg_16" stroke="#ececab" fill="#FFBA08" fill-opacity="1" stroke-opacity="1"/>
<path d="M3682 2383 l3 -258 33 -3 32 -3 0 111 0 111 37 -26 c50 -34 125 -35 174 -2 72 47 99 160 59 241 -29 58 -63 80 -135 84 -52 3 -65 0 -97 -22 l-38 -25 0 24 c0 22 -4 25 -35 25 l-35 0 2 -257z m223 193 c70 -30 87 -137 29 -197 -59 -61 -163 -25 -179 64 -10 50 19 107 65 129 42 22 42 22 85 4z" id="svg_17" stroke="#ececab" fill="#FFBA08" fill-opacity="1" stroke-opacity="1"/>
<path d="M4230 2553 c-19 -3 -38 -7 -42 -11 -4 -4 -33 -75 -66 -159 l-60 -151 79 51 c55 36 81 60 85 77 3 14 16 62 30 106 27 90 27 95 17 92 -5 0 -24 -3 -43 -5z" id="svg_18" stroke="#ececab" fill="#08080a" fill-opacity="1" stroke-opacity="1"/>
<path d="M4620 2361 c0 -5 -34 -45 -75 -89 l-75 -80 0 -92 0 -93 78 104 c43 57 88 118 100 135 l22 32 -21 46 c-19 44 -29 57 -29 37z" id="svg_19" stroke="#ececab" fill="#08080a" fill-opacity="1" stroke-opacity="1"/>
<path d="M4187 2207 c-8 -13 -22 -43 -30 -68 -9 -24 -19 -53 -23 -64 -5 -15 3 -10 31 15 33 31 36 32 20 8 -14 -23 -39 -157 -31 -166 12 -11 59 29 81 69 14 27 31 51 36 55 7 4 7 -2 -1 -15 -6 -12 -10 -31 -8 -42 3 -17 10 -13 54 30 28 28 54 61 57 73 5 19 2 18 -19 -9 -32 -41 -50 -43 -29 -3 9 17 12 30 8 30 -15 0 -78 -42 -95 -63 -17 -22 -18 -21 -18 23 0 25 7 55 16 68 17 24 6 29 -27 12 -15 -9 -19 -7 -19 5 0 9 5 25 11 37 15 28 5 33 -14 5z" id="svg_20" stroke="#ececab" fill="#08080a" fill-opacity="1" stroke-opacity="1"/>
</g></g></svg>