<?xml version="1.0" standalone="no"?>
<!DOCTYPE svg PUBLIC "-//W3C//DTD SVG 20010904//EN"
 "http://www.w3.org/TR/2001/REC-SVG-20010904/DTD/svg10.dtd">
<svg version="1.0" xmlns="http://www.w3.org/2000/svg"
 width="250px" height="250px" viewBox="0 0 512.000000 512.000000"
 preserveAspectRatio="xMidYMid meet">

<g transform="translate(0.000000,512.000000) scale(0.100000,-0.100000)"
fill="#FFBA08" stroke="none">
<path d="M4193 4867 c-92 -95 -128 -139 -154 -192 l-34 -69 -5 -281 -5 -280
-115 -60 c-176 -92 -200 -134 -200 -342 l0 -123 640 0 640 0 0 128 c0 209 -20
242 -205 340 l-110 58 -6 274 c-5 292 -10 320 -61 393 -22 32 -245 269 -258
275 -4 1 -61 -53 -127 -121z m189 -164 c94 -97 93 -92 96 -375 l3 -248 -161 0
-161 0 3 248 c3 283 2 278 96 375 31 31 59 57 62 57 3 0 31 -26 62 -57z m98
-903 l0 -120 -160 0 -160 0 0 120 0 120 160 0 160 0 0 -120z m-480 -25 l0 -95
-80 0 -80 0 0 41 c0 58 13 75 88 114 37 19 68 34 70 35 1 0 2 -43 2 -95z m790
6 c5 -11 10 -38 10 -60 l0 -41 -80 0 -80 0 0 95 0 95 70 -35 c38 -19 74 -44
80 -54z"/>
<path d="M560 4897 c0 -211 -134 -376 -335 -410 l-65 -11 0 -76 0 -76 65 -11
c201 -35 335 -198 335 -410 l0 -63 80 0 80 0 0 63 c0 128 44 233 131 311 62
56 122 85 204 99 l65 11 0 76 0 76 -65 11 c-82 14 -142 43 -204 99 -87 78
-131 183 -131 311 l0 63 -80 0 -80 0 0 -63z m124 -366 c20 -28 59 -67 87 -87
27 -21 49 -41 49 -44 0 -3 -22 -23 -49 -44 -28 -20 -67 -59 -87 -87 -21 -27
-41 -49 -44 -49 -3 0 -23 22 -44 49 -20 28 -59 67 -87 87 -27 21 -49 41 -49
44 0 3 22 23 49 44 28 20 67 59 87 87 21 27 41 49 44 49 3 0 23 -22 44 -49z"/>
<path d="M2880 4880 l0 -80 80 0 80 0 0 80 0 80 -80 0 -80 0 0 -80z"/>
<path d="M1920 4800 l0 -80 80 0 80 0 0 80 0 80 -80 0 -80 0 0 -80z"/>
<path d="M1200 4720 l0 -80 80 0 80 0 0 80 0 80 -80 0 -80 0 0 -80z"/>
<path d="M3600 4640 l0 -80 80 0 80 0 0 80 0 80 -80 0 -80 0 0 -80z"/>
<path d="M2340 4629 c-371 -43 -735 -195 -1030 -429 -96 -77 -263 -245 -331
-335 -184 -240 -321 -540 -378 -825 -23 -115 -41 -265 -41 -347 l0 -53 80 0
80 0 0 45 c0 148 43 385 101 552 303 877 1206 1390 2118 1203 203 -43 452
-145 620 -255 39 -26 74 -45 77 -42 16 15 84 112 84 118 0 11 -95 75 -187 127
-213 120 -466 203 -722 237 -115 16 -352 18 -471 4z"/>
<path d="M2480 4240 l0 -80 80 0 80 0 0 80 0 80 -80 0 -80 0 0 -80z"/>
<path d="M1680 3625 l0 -375 -320 -160 -320 -160 0 -505 0 -504 -358 -3 -359
-3 -49 -30 c-30 -19 -60 -49 -79 -79 -27 -44 -30 -58 -30 -126 0 -68 3 -82 30
-126 19 -30 49 -60 79 -79 l49 -30 187 -3 187 -4 38 -89 c140 -328 407 -644
718 -852 591 -395 1344 -443 1992 -128 212 104 378 225 551 402 165 170 298
366 386 570 l42 97 186 4 187 3 49 30 c30 19 60 49 79 79 27 44 30 58 30 126
0 68 -3 82 -30 126 -19 30 -49 60 -79 79 l-49 30 -439 3 -438 3 0 719 0 720
-320 0 -320 0 0 320 0 320 -800 0 -800 0 0 -375z m480 15 l0 -200 -160 0 -160
0 0 200 0 200 160 0 160 0 0 -200z m480 0 l0 -200 -160 0 -160 0 0 200 0 200
160 0 160 0 0 -200z m480 0 l0 -200 -160 0 -160 0 0 200 0 200 160 0 160 0 0
-200z m-960 -560 l0 -200 -160 0 -160 0 0 200 0 200 160 0 160 0 0 -200z m480
0 l0 -200 -160 0 -160 0 0 200 0 200 160 0 160 0 0 -200z m480 0 l0 -200 -160
0 -160 0 0 200 0 200 160 0 160 0 0 -200z m640 -520 l0 -640 -240 0 -240 0 0
640 0 640 240 0 240 0 0 -640z m-2080 -65 l0 -575 -80 0 -80 0 0 280 0 280
-160 0 -160 0 0 175 0 175 238 119 c130 66 238 120 240 120 1 1 2 -258 2 -574z
m480 25 l0 -200 -160 0 -160 0 0 200 0 200 160 0 160 0 0 -200z m480 0 l0
-200 -160 0 -160 0 0 200 0 200 160 0 160 0 0 -200z m480 0 l0 -200 -160 0
-160 0 0 200 0 200 160 0 160 0 0 -200z m-1760 -400 l0 -200 -80 0 -80 0 0
200 0 200 80 0 80 0 0 -200z m800 -80 l0 -120 -160 0 -160 0 0 120 0 120 160
0 160 0 0 -120z m480 0 l0 -120 -160 0 -160 0 0 120 0 120 160 0 160 0 0 -120z
m480 0 l0 -120 -160 0 -160 0 0 120 0 120 160 0 160 0 0 -120z m1655 -305 c33
-32 33 -78 0 -110 l-24 -25 -2191 0 -2191 0 -24 25 c-16 15 -25 36 -25 55 0
19 9 40 25 55 l24 25 2191 0 2191 0 24 -25z m-2535 -342 c1 -275 242 -513 520
-513 277 0 519 239 520 513 l0 47 486 0 485 0 -7 -22 c-3 -13 -19 -49 -35 -80
l-29 -57 -288 -3 -289 -3 -49 -30 c-30 -19 -60 -49 -79 -79 -27 -44 -30 -58
-30 -126 0 -68 3 -82 30 -126 19 -29 49 -60 78 -78 42 -26 61 -30 145 -35 l97
-6 -65 -54 c-102 -85 -233 -168 -385 -242 l-139 -69 -21 63 c-35 107 -105 177
-214 212 -40 14 -75 17 -154 13 -93 -4 -109 -8 -165 -38 -109 -58 -161 -144
-170 -278 l-5 -84 -76 7 c-163 14 -449 87 -550 140 -22 11 -18 13 45 17 241
17 396 243 323 470 -20 64 -31 81 -88 138 -110 108 -84 104 -655 110 l-490 5
-58 110 c-32 61 -58 113 -58 118 0 4 308 7 685 7 l685 0 0 -47z m878 -17 c-11
-129 -94 -248 -212 -303 -52 -24 -74 -28 -146 -28 -73 0 -94 4 -148 29 -122
57 -212 192 -212 321 l0 45 361 0 362 0 -5 -64z m921 -313 c-81 -111 -62 -103
-236 -103 -150 0 -155 1 -178 25 -16 15 -25 36 -25 55 0 19 9 40 25 55 24 25
24 25 240 25 l216 0 -42 -57z m-2056 -52 c21 -13 50 -42 65 -64 23 -34 27 -52
27 -107 0 -55 -4 -73 -27 -107 -15 -22 -44 -51 -65 -64 -36 -23 -47 -24 -245
-27 l-207 -3 -47 32 c-82 56 -207 167 -282 252 -119 132 -158 118 325 115
l418 -3 38 -24z m991 -485 c39 -30 66 -78 66 -119 0 -22 -7 -26 -77 -40 -97
-20 -180 -34 -260 -42 l-63 -7 0 55 c0 64 12 102 43 136 38 41 75 51 168 49
77 -3 89 -6 123 -32z"/>
<path d="M3440 2840 l0 -200 80 0 80 0 0 200 0 200 -80 0 -80 0 0 -200z"/>
<path d="M3440 2280 l0 -200 80 0 80 0 0 200 0 200 -80 0 -80 0 0 -200z"/>
<path d="M1200 3520 l0 -80 80 0 80 0 0 80 0 80 -80 0 -80 0 0 -80z"/>
<path d="M160 3440 l0 -80 80 0 80 0 0 80 0 80 -80 0 -80 0 0 -80z"/>
<path d="M4080 3233 c0 -222 41 -334 170 -473 l70 -75 57 60 c137 144 174 240
181 463 l4 152 -241 0 -241 0 0 -127z m320 -82 c0 -58 -32 -166 -60 -201 l-20
-25 -20 25 c-28 35 -60 143 -60 201 l0 49 80 0 80 0 0 -49z"/>
<path d="M4800 2880 l0 -80 80 0 80 0 0 80 0 80 -80 0 -80 0 0 -80z"/>
<path d="M4640 2480 l0 -80 -80 0 -80 0 0 -80 0 -80 80 0 80 0 0 -80 0 -80 80
0 80 0 0 80 0 80 80 0 80 0 0 80 0 80 -80 0 -80 0 0 80 0 80 -80 0 -80 0 0
-80z"/>
<path d="M560 2280 l0 -120 80 0 80 0 0 120 0 120 -80 0 -80 0 0 -120z"/>
<path d="M4080 2160 l0 -80 80 0 80 0 0 80 0 80 -80 0 -80 0 0 -80z"/>
</g>
</svg>
